<svg xmlns="http://www.w3.org/2000/svg" viewBox="0 0 131.14 22.87"><defs><style>.cls-1{fill:#ec6519;}.cls-2{fill:#a9b4ae;}</style></defs><title>资源 1</title><g id="图层_2" data-name="图层 2"><g id="图层_1-2" data-name="图层 1"><path class="cls-1" d="M32.5,11.23c.09.12.13.23.2.26a4.41,4.41,0,0,1,2.72,3.58q.7,3.41,1.39,6.8c-1.41.48-1.68.34-2-.95-.41-1.9-.76-3.83-1.24-5.71-.56-2.19-1.71-3-3.94-3-.63,0-1.26,0-1.89,0s-.87.21-.86.86c0,2.68,0,5.35,0,8,0,1-.37,1.11-1.16,1.05-.5,0-.68-.24-.64-.71,0-.25,0-.5,0-.75,0-6.48,0-13,0-19.44C25.13.07,25,.13,26.19.13a40.74,40.74,0,0,1,5.64.24A4.87,4.87,0,0,1,36.38,5c.27,3-.85,4.91-3.48,6A2.87,2.87,0,0,0,32.5,11.23ZM26.93,1.9c0,2.88,0,5.33,0,8a.73.73,0,0,0,.46.54,9.4,9.4,0,0,0,5-.72A4.32,4.32,0,0,0,34.6,5.07a3.28,3.28,0,0,0-3.14-3A41.61,41.61,0,0,0,26.93,1.9Z"/><path class="cls-1" d="M66.45,9.27c.11-.18.16-.23.23-.35A4.17,4.17,0,0,1,74,8.71a9.68,9.68,0,0,1,1.39,6.15,14.47,14.47,0,0,1-.92,4.58,5,5,0,0,1-6,2.88,4,4,0,0,1-3.11-2.87,13.68,13.68,0,0,1-.66-3.75c-.07-4.85,0-10.65,0-15.49h1.4c0,2.32,0,5.47,0,7.8,0,.39,0,1.32,0,1.72C66.28,9.56,66.34,9.47,66.45,9.27Zm.11,3a11.35,11.35,0,0,0,.18,6,7.09,7.09,0,0,0,.38,1,3,3,0,0,0,5.33.33,5.39,5.39,0,0,0,.68-1.33A12,12,0,0,0,73.19,11c-.52-1.83-1.61-3-2.91-2.94A3.49,3.49,0,0,0,67,10.67,14.05,14.05,0,0,0,66.56,12.27Z"/><path class="cls-1" d="M53,9.27c.1-.18.15-.23.22-.35a4.17,4.17,0,0,1,7.35-.21,9.68,9.68,0,0,1,1.39,6.15A14.2,14.2,0,0,1,61,19.44a5,5,0,0,1-6,2.88,4,4,0,0,1-3.11-2.87,13.66,13.66,0,0,1-.65-3.75c-.07-4.85,0-10.65,0-15.49h1.41c0,2.32,0,5.47,0,7.8,0,.39,0,1.32.05,1.72A4.62,4.62,0,0,1,53,9.27Zm.11,3a11.24,11.24,0,0,0,.17,6,7.14,7.14,0,0,0,.39,1,3,3,0,0,0,5.32.33,5.07,5.07,0,0,0,.68-1.33A11.93,11.93,0,0,0,59.7,11c-.51-1.83-1.61-3-2.9-2.94a3.5,3.5,0,0,0-3.26,2.6A14,14,0,0,0,53.08,12.27Z"/><path class="cls-1" d="M47.15,20.14c-.2.22-.4.45-.61.67a4.89,4.89,0,0,1-5,1.48,3.77,3.77,0,0,1-2-1.43,4.22,4.22,0,0,1,1.92-6.23,23.42,23.42,0,0,1,5-1c.72-.1,1-.31,1-1-.06-.56-.06-1.13-.13-1.69a2.82,2.82,0,0,0-2.62-2.85c-1.72-.27-3.19.17-3.55,1.55-.08.31-.18.82-.18.82H39.33a3.49,3.49,0,0,1,3.09-3.62,11.86,11.86,0,0,1,3.26,0,3.24,3.24,0,0,1,2.89,2.71,6.91,6.91,0,0,1,.18,1.5c0,3.36,0,6.73,0,10.1,0,.41.13.92-.57,1-.54,0-.84-.13-.8-.73,0-.37,0-.75,0-1.12Zm.1-5a24,24,0,0,0-3.09.15,4.16,4.16,0,0,0-2.92,1.51A2.51,2.51,0,0,0,41,19.56a2.19,2.19,0,0,0,2.44,1C45.93,20.31,47.52,18.09,47.25,15.14Z"/><path class="cls-2" d="M126.77,21.18c1.32-.08,2.45-.09,3.57-.23.86-.1.8-.09.8.9s0,1-.78,1c-2.83,0-5.67,0-8.49,0a5.65,5.65,0,0,1-5.39-3.35A19.15,19.15,0,0,1,115,12.26a17.58,17.58,0,0,1,1.57-8.43,6.32,6.32,0,0,1,9-2.71,7.31,7.31,0,0,1,3.27,4.57,21.74,21.74,0,0,1-.1,12.15A10.44,10.44,0,0,1,126.77,21.18Zm.68-9.5a16.57,16.57,0,0,0-1-6.54,4.44,4.44,0,0,0-2.74-2.68c-2.62-.85-5.21.66-6,3.63a21,21,0,0,0-.73,6,24,24,0,0,0,.66,5.1,4.32,4.32,0,0,0,3.91,3.65c2.76.15,4.16-.7,5.11-3.19A16.42,16.42,0,0,0,127.45,11.68Z"/><path class="cls-1" d="M21.43,10.27c0-1.13-.26-1.38-1.4-1.39-2,0-3.9,0-5.85,0-1.13,0-1.39-.26-1.4-1.39,0-2.08,0-4.15,0-6.23,0-.84-.3-1.32-1.22-1.25C11,0,10.43,0,9.86,0A1.33,1.33,0,0,0,8.54,1.34q0,3.17,0,6.32c0,.84-.36,1.23-1.18,1.22-.6,0-1.2,0-1.8,0-1.11,0-1.4-.29-1.41-1.39,0-1.8,0-3.59,0-5.38,0-2.1,0-2.1-2-2.1-.32,0-.63,0-1,0C.3,0,0,.32,0,1.18,0,4.45,0,7.72,0,11s0,6.55,0,9.82c0,1.16.12,1.28,1.3,1.28H20c1.21,0,1.42-.21,1.43-1.44Q21.44,15.46,21.43,10.27Zm-4.22,6.34a1.11,1.11,0,0,1-1.1,1.11H13.92a1.11,1.11,0,0,1-1.1-1.11V14.43a1.11,1.11,0,0,1,1.1-1.11h2.19a1.11,1.11,0,0,1,1.1,1.11Z"/><polygon class="cls-2" points="110.47 0.56 110.47 0.56 109.22 0.56 103.26 19.48 97.31 0.56 95.96 0.56 95.96 0.56 94.13 0.56 94.13 22.87 95.96 22.87 95.96 2.68 102.2 22.87 104.33 22.87 110.47 3 110.47 22.87 112.3 22.87 112.3 0.56 110.47 0.56"/><rect class="cls-1" x="77.8" y="0.11" width="2.16" height="2.54"/><rect class="cls-1" x="78.17" y="7.04" width="1.46" height="15.07"/><path class="cls-1" d="M90.29,20.62c-.43.05-.79.11-1.17.13-1.69.09-2.54-.64-2.58-2.32,0-.25,0-.51,0-.77V8.41h3.75V7H86.53V2.62H85.07V7H82.69V8.41h2.38v9.28h0c0,.69,0,1.27.06,2a2.52,2.52,0,0,0,2,2.32,8.16,8.16,0,0,0,2,.23h1.24V20.62Z"/></g></g></svg>